<?xml version="1.0" encoding="UTF-8" standalone="no"?>
<!-- Created with Inkscape (http://www.inkscape.org/) -->

<svg
   version="1.1"
   id="svg2"
   width="669.57782"
   height="379.76999"
   viewBox="0 0 669.57782 379.76999"
   sodipodi:docname="Luck (film 2022) logo.svg"
   inkscape:version="1.1.1 (3bf5ae0d25, 2021-09-20)"
   xmlns:inkscape="http://www.inkscape.org/namespaces/inkscape"
   xmlns:sodipodi="http://sodipodi.sourceforge.net/DTD/sodipodi-0.dtd"
   xmlns="http://www.w3.org/2000/svg"
   xmlns:svg="http://www.w3.org/2000/svg">
  <defs
     id="defs6" />
  <sodipodi:namedview
     id="namedview4"
     pagecolor="#505050"
     bordercolor="#eeeeee"
     borderopacity="1"
     inkscape:pageshadow="0"
     inkscape:pageopacity="0"
     inkscape:pagecheckerboard="0"
     showgrid="false"
     fit-margin-left="25"
     lock-margins="true"
     fit-margin-top="25"
     fit-margin-right="25"
     fit-margin-bottom="25"
     inkscape:zoom="0.57712392"
     inkscape:cx="210.52671"
     inkscape:cy="25.990952"
     inkscape:window-width="1920"
     inkscape:window-height="1046"
     inkscape:window-x="-11"
     inkscape:window-y="-11"
     inkscape:window-maximized="1"
     inkscape:current-layer="g8" />
  <g
     inkscape:groupmode="layer"
     inkscape:label="Image"
     id="g8"
     transform="translate(-9.114117,-662.65815)">
    <rect
       style="opacity:0.98;fill:#ffffff;fill-opacity:1;stroke-width:1.55116;stroke-linecap:round;-inkscape-stroke:none;stop-color:#000000"
       id="rect15255"
       width="700"
       height="400"
       x="9.1141167"
       y="662.65814" />
    <path
       style="fill:#245834;fill-opacity:1"
       d="m 274.82521,931.77103 c -12.15677,-4.01877 -21.40843,-14.6506 -26.86023,-30.86724 -5.54842,-16.50404 -4.76519,-46.53969 1.8048,-69.21135 2.53319,-8.74152 3.23089,-15.98377 1.76239,-18.29391 -1.17411,-1.84701 -9.35068,-5.25247 -12.70696,-5.29231 -4.22577,-0.0502 -7.57613,-1.07611 -6.92974,-2.122 0.74315,-1.20244 83.14339,-1.15865 83.88703,0.0446 0.31642,0.51198 -0.58931,2.18753 -2.01273,3.72343 -12.0294,12.97991 -24.44456,41.72936 -24.44456,56.60556 0,7.36334 1.43779,11.32634 5.80125,15.9901 10.47733,11.19838 24.13356,-9.71968 39.66029,-60.75 2.00814,-6.6 4.06897,-13.01866 4.57961,-14.26368 l 0.92844,-2.26369 32.68219,0.26369 c 21.82803,0.17611 32.79897,0.61436 33.03384,1.31958 0.1934,0.58075 -1.29674,1.84197 -3.31144,2.80271 -2.01469,0.96074 -6.23949,3.7293 -9.38844,6.15236 -12.09723,9.30861 -20.59393,21.41335 -25.61279,36.48903 -2.58541,7.76609 -2.82974,9.75196 -2.82974,23 0,13.23081 0.2469,15.24401 2.82077,23 2.7116,8.171 11.1768,24 12.83498,24 0.44057,0 0.80104,0.9 0.80104,2 0,1.94184 -0.66156,1.99955 -22.75,1.98469 -12.5125,-0.008 -23.27128,-0.34701 -23.9084,-0.75241 -0.63712,-0.4054 -1.89908,-4.32297 -2.80436,-8.70571 -0.90528,-4.38275 -1.82246,-8.14512 -2.03817,-8.36083 -0.21571,-0.21571 -3.45374,2.63947 -7.19563,6.34483 -12.84015,12.71483 -22.23752,17.56827 -35.07241,18.11378 -5.52908,0.23499 -10.19796,-0.11385 -12.73103,-0.95123 z"
       id="path1525" />
    <path
       style="fill:#245834;fill-opacity:1"
       d="m 423.58559,936.07245 c -8.48515,-1.22033 -21.3518,-8.23021 -29.11334,-15.86123 -11.86204,-11.66258 -16.65725,-24.24435 -15.84879,-41.5844 0.61337,-13.1557 2.75142,-22.67378 7.52124,-33.48276 6.74318,-15.28082 16.03253,-25.11465 30.21279,-31.98366 8.27991,-4.01084 15.94087,-5.3897 27.20757,-4.89693 8.17446,0.35752 10.25437,0.85065 16.79502,3.98193 4.10582,1.96563 9.15263,5.23323 11.21513,7.26133 4.47247,4.39788 4.86645,3.43247 0.85764,-2.10153 -3.53222,-4.87609 -7.20754,-7.85235 -11.70494,-9.47863 -1.87148,-0.67674 -3.4027,-1.52112 -3.4027,-1.87639 0,-0.71436 57.75349,-20.02819 59.75,-19.9815 0.6875,0.0161 1.25,0.18279 1.25,0.37046 0,0.39568 -15.64865,46.26017 -22.06113,64.65877 -2.39615,6.875 -5.50014,15.84188 -6.89775,19.9264 -1.39762,4.08453 -3.04209,7.58902 -3.65439,7.78776 -0.64004,0.20775 -1.34193,-1.34347 -1.6512,-3.64926 -0.29586,-2.20583 -2.35143,-7.75728 -4.56792,-12.33655 -5.17839,-10.69853 -11.19298,-16.54019 -20.14113,-19.56203 -7.91462,-2.67281 -8.57196,-2.67428 -15.73897,-0.0352 -15.64133,5.7595 -22.08889,22.78576 -15.66572,41.3689 2.28593,6.61352 10.45918,14.70274 17.07123,16.89572 11.42319,3.78866 26.30345,1.38657 36.41599,-5.87857 2.69259,-1.93443 5.11958,-3.51715 5.3933,-3.51715 1.2826,0 0.16837,3.42637 -3.49324,10.74205 -4.5882,9.16693 -13.41288,18.92386 -22.16307,24.50438 -10.32886,6.58735 -26.44641,10.33016 -37.58562,8.72811 z"
       id="path1523" />
    <path
       style="fill:#7eb24c;fill-opacity:1"
       d="m 147.32521,997.29036 c 0,-0.44416 1.9125,-1.65088 4.25,-2.68162 2.3375,-1.03074 7.625,-3.40135 11.75,-5.26803 4.125,-1.86668 8.86995,-4.01214 10.54433,-4.7677 6.47185,-2.9204 25.08762,-9.48982 42.35458,-14.94676 24.40157,-7.71171 60.75882,-14.25765 96.60109,-17.39256 16.0903,-1.40732 49.62438,-1.49477 60.8921,-0.1588 5.00934,0.59394 15.6329,1.7475 23.6079,2.56347 27.72091,2.83627 66.78034,11.87808 93.12344,21.55699 16.5131,6.06721 18.45006,6.79102 23.87656,8.92229 3.025,1.18807 7.525,3.08303 10,4.21101 2.475,1.12798 6.47619,2.89882 8.89154,3.9352 8.0366,3.44835 3.48462,2.98785 -5.524,-0.55884 -23.25748,-9.15645 -57.6967,-19.81032 -73.36754,-22.69647 -3.575,-0.65842 -7.23223,-1.56892 -8.12717,-2.02333 -0.89495,-0.45441 -9.44495,-1.99437 -19,-3.42213 -9.55506,-1.42776 -20.07283,-3.01047 -23.37283,-3.51713 -3.3,-0.50666 -18.6,-1.21552 -34,-1.57525 -28.84839,-0.67385 -50.41526,0.35787 -65.5,3.13341 -4.125,0.75898 -10.425,1.8789 -14,2.48869 -23.85083,4.06831 -52.56679,13.64812 -79.86403,26.6431 l -13.36403,6.36201 h -24.88597 c -13.68728,0 -24.88597,-0.3634 -24.88597,-0.80755 z"
       id="path1521" />
    <path
       style="fill:#245834;fill-opacity:1"
       d="m 586.05741,1017.8479 c -3.88213,-6.7128 -20.02874,-36.41344 -38.73472,-71.24999 -9.28153,-17.2852 -15.22997,-28.03508 -15.92303,-28.77572 -0.39924,-0.42664 -4.50623,10.26086 -9.12667,23.75 -4.62043,13.48915 -8.86135,24.52132 -9.42428,24.51595 -0.56292,-0.005 -3.4985,-1.18708 -6.5235,-2.62601 -3.025,-1.43893 -14.5,-5.71671 -25.5,-9.50617 -11,-3.78947 -20.08283,-7.22026 -20.18406,-7.62399 -0.10124,-0.40374 1.69876,-2.09976 4,-3.76895 15.89348,-11.52825 41.41073,-69.7036 72.35806,-164.96511 2.50148,-7.7 6.57178,-20.075 9.04512,-27.5 7.01141,-21.04838 6.2873,-31.01027 -2.88149,-39.6422 -3.64526,-3.43182 -9.63456,-6.67815 -14.33763,-7.77131 -7.14227,-1.66011 -10.67163,-2.7482 -10.25748,-3.16234 0.24442,-0.24443 19.63984,-0.71361 43.10094,-1.04265 37.32866,-0.52351 42.65654,-0.41274 42.65654,0.88687 0,0.81681 -2.28503,8.17807 -5.07784,16.35837 -2.79281,8.18029 -7.49286,22.07326 -10.44455,30.87326 -2.95169,8.8 -9.15349,27.025 -13.78178,40.5 -4.62828,13.475 -11.153,32.6 -14.49937,42.5 -3.34638,9.9 -8.76193,25.7625 -12.03457,35.25 -3.27263,9.4875 -5.741,17.25 -5.48526,17.25 1.81083,0 15.35449,-11.10188 22.96564,-18.82518 15.16605,-15.38951 29.26149,-37.18214 33.2892,-51.46767 l 1.75006,-6.20715 33.6855,-0.26333 c 26.84048,-0.20983 33.78649,-1.8e-4 34.18246,1.0317 0.6233,1.62429 -9.18808,20.04163 -15.29884,28.7181 -14.76506,20.9644 -32.74398,36.66685 -53.75065,46.94482 -16.23381,7.94275 -27.38074,11.39845 -43.75,13.56312 -2.6125,0.34547 -4.75,0.96445 -4.75,1.37551 0,1.13376 12.89386,14.22258 18,18.27218 12.0346,9.54443 28.52191,16.80125 42.97265,18.91423 13.72638,2.00706 35.85311,0.0882 43.39225,-3.76304 1.60359,-0.81917 3.24431,-1.08408 3.72668,-0.60171 0.82753,0.82753 -2.91214,5.87014 -39.905,53.80842 -8.91287,11.55 -19.23853,24.93449 -22.9459,29.74329 -3.70737,4.8088 -7.03542,8.7463 -7.39566,8.75 -0.36024,0 -1.76101,-1.9058 -3.11282,-4.2433 z"
       id="path1519" />
    <path
       style="fill:#245834;fill-opacity:1"
       d="m 49.32522,1026.8321 c 0,-0.7711 3.994903,-12.3893 8.877559,-25.8181 21.21135,-58.33787 36.628026,-107.24263 45.525531,-144.41609 1.44807,-6.05 3.05767,-12.35 3.57688,-14 0.81656,-2.59496 4.10519,-20.55117 7.05116,-38.5 0.4965,-3.025 1.39076,-12.475 1.98725,-21 2.61746,-37.4085 -3.52946,-62.27121 -18.410274,-74.46493 -4.684775,-3.83882 -15.728879,-8.53507 -20.071806,-8.53507 -1.304998,0 -3.197028,-0.3375 -4.204512,-0.75 -3.636475,-1.48891 7.483314,-1.74851 63.546382,-1.48358 l 56.37817,0.26642 -0.57375,3.23358 c -0.31556,1.77847 -1.75037,8.63358 -3.18847,15.23358 -7.15649,32.84402 -8.68977,39.83173 -10.97131,50 -2.43477,10.85123 -5.00831,22.53052 -10.57682,48 -1.56324,7.15 -3.9982,18.175 -5.41103,24.5 -1.41282,6.325 -3.89583,17.575 -5.5178,25 -1.62196,7.425 -4.11247,18.675 -5.53448,25 -1.422,6.325 -3.66135,16.45 -4.97634,22.5 -1.31498,6.05 -3.55621,16.35693 -4.98051,22.9043 -1.42431,6.54736 -2.43886,12.35664 -2.25457,12.90951 0.18429,0.55287 3.68614,-2.97235 7.7819,-7.83381 7.35964,-8.73553 18.26936,-21.58146 36.5018,-42.98 13.03878,-15.30299 31.80496,-37.62024 38.89472,-46.25465 3.27234,-3.98528 6.25721,-6.90832 6.63306,-6.49566 0.37584,0.41267 0.2529,4.12531 -0.27322,8.25031 -0.52612,4.125 -0.76786,16.275 -0.53721,27 0.43502,20.22824 1.16102,24.20216 6.20261,33.95153 3.6379,7.03491 15.25321,17.09361 23.2496,20.13384 3.35553,1.27577 2.34226,3.35516 -1.80154,3.69706 -2.80248,0.23123 -8.11663,1.19186 -15.42299,2.78798 -17.06162,3.72722 -51.56417,15.94274 -76,26.90756 -20.09642,9.01765 -77.380954,38.60522 -93.159712,48.11722 -10.738277,6.4734 -14.956813,8.9493 -15.840277,9.2967 -0.55,0.2163 -2.2375,1.2598 -3.75,2.3188 -2.110127,1.4775 -2.75,1.5993 -2.750001,0.5235 z"
       id="path1497" />
  </g>
</svg>
